<svg xmlns="http://www.w3.org/2000/svg" version="1.1" xmlns:xlink="http://www.w3.org/1999/xlink" width="200" height="200"><svg xmlns="http://www.w3.org/2000/svg" version="1.1" xmlns:xlink="http://www.w3.org/1999/xlink" viewBox="0 0 200 200"><rect width="200" height="200" fill="url('#gradient')"></rect><defs><linearGradient id="SvgjsLinearGradient1001" gradientTransform="rotate(108 0.5 0.5)"><stop offset="0%" stop-color="#c48f4d"></stop><stop offset="100%" stop-color="#985351"></stop></linearGradient></defs><g><g fill="#084966" transform="matrix(3.6091638926962992,0,0,3.6091638926962992,8.739201390325434,125.66541343793165)" stroke="#e26122" stroke-width="0.35"><path d="M12.24-14.22L12.24-11.57L7.97-11.57L7.97 0L4.54 0L4.54-11.57L0.35-11.57L0.35-14.22L12.24-14.22ZM21.50-4.81L24.91-4.81Q24.84-3.33 24.11-2.19Q23.38-1.05 22.06-0.43Q20.73 0.20 19.03 0.20L19.03 0.20Q16.23 0.20 14.62-1.63Q13.01-3.46 13.01-6.79L13.01-6.79L13.01-7.49Q13.01-9.58 13.74-11.15Q14.46-12.71 15.83-13.57Q17.20-14.42 18.99-14.42L18.99-14.42Q21.58-14.42 23.15-13.06Q24.73-11.70 24.94-9.31L24.94-9.31L21.52-9.31Q21.48-10.61 20.87-11.17Q20.25-11.74 18.99-11.74L18.99-11.74Q17.71-11.74 17.12-10.78Q16.52-9.82 16.49-7.72L16.49-7.72L16.49-6.72Q16.49-4.44 17.07-3.47Q17.64-2.49 19.03-2.49L19.03-2.49Q20.21-2.49 20.84-3.05Q21.46-3.60 21.50-4.81L21.50-4.81ZM33.87-3.78L33.87-3.78Q33.87-4.53 33.33-4.95Q32.80-5.37 31.46-5.82Q30.13-6.27 29.28-6.69L29.28-6.69Q26.51-8.05 26.51-10.42L26.51-10.42Q26.51-11.60 27.20-12.50Q27.89-13.41 29.15-13.91Q30.41-14.41 31.98-14.41L31.98-14.41Q33.52-14.41 34.73-13.87Q35.95-13.32 36.62-12.31Q37.29-11.30 37.29-10L37.29-10L33.88-10Q33.88-10.87 33.34-11.35Q32.81-11.83 31.90-11.83L31.90-11.83Q30.99-11.83 30.45-11.42Q29.92-11.02 29.92-10.39L29.92-10.39Q29.92-9.84 30.51-9.40Q31.09-8.96 32.57-8.48Q34.04-8.01 34.99-7.46L34.99-7.46Q37.29-6.13 37.29-3.80L37.29-3.80Q37.29-1.93 35.89-0.87Q34.48 0.20 32.03 0.20L32.03 0.20Q30.30 0.20 28.90-0.42Q27.50-1.04 26.79-2.12Q26.08-3.20 26.08-4.61L26.08-4.61L29.52-4.61Q29.52-3.47 30.11-2.92Q30.70-2.38 32.03-2.38L32.03-2.38Q32.88-2.38 33.37-2.75Q33.87-3.12 33.87-3.78ZM43.73 0L39.05 0L39.05-14.22L43.63-14.22Q45.52-14.22 47.02-13.36Q48.53-12.51 49.37-10.95Q50.21-9.39 50.22-7.46L50.22-7.46L50.22-6.81Q50.22-4.85 49.40-3.31Q48.57-1.76 47.08-0.88Q45.58-0.01 43.73 0L43.73 0ZM43.63-11.57L42.48-11.57L42.48-2.64L43.67-2.64Q45.15-2.64 45.94-3.69Q46.73-4.74 46.73-6.81L46.73-6.81L46.73-7.42Q46.73-9.48 45.94-10.53Q45.15-11.57 43.63-11.57L43.63-11.57Z"></path></g></g></svg><style>@media (prefers-color-scheme: light) { :root { filter: none; } }
@media (prefers-color-scheme: dark) { :root { filter: none; } }
</style></svg>